<?xml version="1.0" encoding="UTF-8"?>
<!DOCTYPE svg PUBLIC "-//W3C//DTD SVG 1.1//EN" "http://www.w3.org/Graphics/SVG/1.1/DTD/svg11.dtd">
<!-- Creator: CorelDRAW 2018 (64 Bit Versão de avaliação) -->
<svg xmlns="http://www.w3.org/2000/svg" xml:space="preserve" width="321px" height="321px" version="1.1" style="shape-rendering:geometricPrecision; text-rendering:geometricPrecision; image-rendering:optimizeQuality; fill-rule:evenodd; clip-rule:evenodd"
viewBox="0 0 321 321"
 xmlns:xlink="http://www.w3.org/1999/xlink">
 <defs>
  <style type="text/css">
   <![CDATA[
    .str0 {stroke:#B1CD49;stroke-width:5.96;stroke-miterlimit:22.9256}
    .fil0 {fill:none}
    .fil1 {fill:#B1CD49;fill-rule:nonzero}
   ]]>
  </style>
 </defs>
 <g id="Camada_x0020_1">
  <metadata id="CorelCorpID_0Corel-Layer"/>
  <circle id="Elipse_1" class="fil0 str0" cx="160.5" cy="160.5" r="157.52" data-name="Elipse 1"/>
  <path id="_1" class="fil1" d="M101.87 91.02l-18.27 7.23c-1.81,0.61 -2.62,2.01 -2.62,3.82l0 15.26c0,2.21 1.61,3.41 3.82,3.01l17.67 -3.61c0.8,-0.2 1.41,0.4 1.41,1.2l0 109.43c0,2.21 1.2,3.42 3.41,3.42l21.48 0c2.21,0 3.42,-1.21 3.42,-3.42l0 -133.73c0,-2.2 -1.21,-3.41 -3.42,-3.41l-22.69 0c-1.6,0 -2.81,0.2 -4.21,0.8z"/>
  <path id="1" class="fil1" d="M169.34 230.78l23.09 0c1.8,0 3.21,-0.81 3.81,-2.61l42.97 -111.64c0.61,-1.61 0.81,-2.82 0.81,-4.22l0 -18.68c0,-2.2 -1.21,-3.41 -3.42,-3.41l-85.74 0c-2.21,0 -3.41,1.21 -3.41,3.41l-0.2 30.12c0,2.21 1.2,3.42 3.41,3.42l16.27 0c2.2,0 3.41,-1.21 3.41,-3.42l0 -8.03c0,-0.8 0.6,-1.2 1.2,-1.2l37.15 0c0.8,0 1.01,0.6 0.8,1.4l-42.77 110.84c-0.8,2.21 0.21,4.02 2.62,4.02z"/>
 </g>
</svg>
