<?xml version="1.0" encoding="UTF-8"?>
<!DOCTYPE svg PUBLIC "-//W3C//DTD SVG 1.1//EN" "http://www.w3.org/Graphics/SVG/1.1/DTD/svg11.dtd">
<!-- Creator: CorelDRAW 2018 (64 Bit Versão de avaliação) -->
<svg xmlns="http://www.w3.org/2000/svg" xml:space="preserve" width="321px" height="321px" version="1.1" style="shape-rendering:geometricPrecision; text-rendering:geometricPrecision; image-rendering:optimizeQuality; fill-rule:evenodd; clip-rule:evenodd"
viewBox="0 0 232.42 232.42"
 xmlns:xlink="http://www.w3.org/1999/xlink">
 <defs>
  <style type="text/css">
   <![CDATA[
    .str0 {stroke:#B1CD49;stroke-width:4.32;stroke-miterlimit:22.9256}
    .fil0 {fill:none}
    .fil1 {fill:#B1CD49;fill-rule:nonzero}
   ]]>
  </style>
 </defs>
 <g id="Camada_x0020_1">
  <metadata id="CorelCorpID_0Corel-Layer"/>
  <circle id="Elipse_1" class="fil0 str0" cx="116.21" cy="116.21" r="114.05" data-name="Elipse 1"/>
  <path id="_1" class="fil1" d="M72.3 66.27l-13.23 5.23c-1.3,0.44 -1.89,1.46 -1.89,2.77l0 11.05c0,1.6 1.17,2.47 2.77,2.18l12.79 -2.62c0.58,-0.15 1.02,0.29 1.02,0.87l0 79.24c0,1.6 0.87,2.47 2.47,2.47l15.56 0c1.6,0 2.47,-0.87 2.47,-2.47l0 -96.83c0,-1.6 -0.87,-2.47 -2.47,-2.47l-16.43 0c-1.17,0 -2.04,0.14 -3.06,0.58z"/>
  <path id="1" class="fil1" d="M172.04 122.68c-1.89,-3.92 -4.51,-6.69 -7.71,-8.72 -0.58,-0.44 -0.58,-0.87 0,-1.17 2.77,-2.18 5.09,-4.65 6.98,-7.41 2.33,-3.63 3.64,-7.85 3.64,-12.79 0,-5.38 -1.75,-10.18 -3.35,-13.23 -5.38,-10.47 -16.13,-15.56 -30.09,-15.56 -12.5,0 -22.83,4.65 -28.5,12.79 -3.05,4.36 -4.79,9.74 -4.79,15.85 0,5.23 1.3,9.6 3.48,13.23 1.75,2.76 3.93,5.23 6.69,7.27 0.58,0.29 0.58,0.73 0,1.16 -3.05,2.18 -5.52,4.95 -7.41,8.44 -1.89,3.92 -3.35,9.16 -3.35,15.12 0,5.52 1.17,10.17 3.49,14.68 5.53,10.76 16.72,16.28 30.24,16.28 14.54,0 25.45,-6.25 30.53,-15.99 2.04,-3.92 3.35,-8.43 3.35,-14.83 0,-6.1 -1.16,-11.05 -3.2,-15.12zm-42.02 -35.04c2.04,-3.92 6.11,-6.25 11.49,-6.25 5.52,0 9.59,2.33 11.78,6.54 1.01,1.89 1.45,4.22 1.45,6.84 0,2.76 -0.58,5.52 -1.89,7.7 -2.18,3.64 -6.11,5.67 -11.34,5.67 -4.8,0 -8.72,-1.89 -10.91,-5.52 -1.3,-2.04 -2.03,-4.8 -2.03,-7.71 0,-2.61 0.44,-5.23 1.45,-7.27zm21.96 58.59c-2.18,3.2 -5.82,5.09 -10.47,5.09 -4.8,0 -8.43,-2.03 -10.61,-5.52 -1.46,-2.47 -2.33,-5.67 -2.33,-9.74 0,-2.91 0.58,-5.82 1.6,-8 2.18,-4.51 5.81,-7.12 11.34,-7.12 5.67,0 9.74,2.61 11.78,7.27 0.87,2.03 1.45,4.79 1.45,7.56 0,4.36 -1.02,7.85 -2.76,10.46z"/>
 </g>
</svg>
