<?xml version="1.0" encoding="UTF-8"?>
<!DOCTYPE svg PUBLIC "-//W3C//DTD SVG 1.1//EN" "http://www.w3.org/Graphics/SVG/1.1/DTD/svg11.dtd">
<!-- Creator: CorelDRAW 2018 (64 Bit Versão de avaliação) -->
<svg xmlns="http://www.w3.org/2000/svg" xml:space="preserve" width="250px" height="47px" version="1.1" style="shape-rendering:geometricPrecision; text-rendering:geometricPrecision; image-rendering:optimizeQuality; fill-rule:evenodd; clip-rule:evenodd"
viewBox="0 0 249.65 47.31"
 xmlns:xlink="http://www.w3.org/1999/xlink">
 <defs>
  <style type="text/css">
   <![CDATA[
    .fil2 {fill:#A8CF45}
    .fil1 {fill:#2A5584}
    .fil0 {fill:#2A5584;fill-rule:nonzero}
   ]]>
  </style>
 </defs>
 <g id="Camada_x0020_1">
  <metadata id="CorelCorpID_0Corel-Layer"/>
  <path class="fil0" d="M18.14 43.89l6.71 0c0.45,0 0.67,-0.22 0.56,-0.71l-8.16 -36.72c-0.06,-0.38 -0.34,-0.6 -0.73,-0.6l-7.55 0c-0.39,0 -0.67,0.22 -0.72,0.6l-8.22 36.72c-0.11,0.49 0.11,0.71 0.56,0.71l6.54 0c0.39,0 0.67,-0.16 0.73,-0.6l1 -5.27c0,-0.16 0.17,-0.21 0.34,-0.21l6.99 0c0.16,0 0.33,0.1 0.33,0.27l0.9 5.21c0.05,0.44 0.33,0.6 0.72,0.6zm-8.05 -12.28l2.63 -14.02c0.06,-0.21 0.28,-0.21 0.34,0l2.34 14.02c0,0.16 -0.05,0.27 -0.22,0.27l-4.81 0c-0.17,0 -0.33,-0.05 -0.28,-0.27zm26.51 12.72c6.66,0 11.19,-4.03 11.19,-10.27l0 -10.06c0,-0.38 -0.28,-0.65 -0.67,-0.65l-9.96 0c-0.39,0 -0.67,0.27 -0.67,0.65l0 4.84c0,0.38 0.28,0.65 0.67,0.65l2.46 0c0.17,0 0.28,0.11 0.28,0.27l0 4.35c0,2.17 -1.28,3.64 -3.3,3.64 -1.95,0 -3.24,-1.47 -3.24,-3.64l0 -18.47c0,-2.18 1.29,-3.64 3.24,-3.64 2.02,0 3.3,1.46 3.3,3.64l0 2.17c0,0.38 0.28,0.65 0.67,0.65l6.55 0c0.39,0 0.67,-0.27 0.67,-0.65l0 -2.06c0,-6.31 -4.53,-10.33 -11.19,-10.33 -6.7,0 -11.12,4.02 -11.12,10.27l0 18.37c0,6.24 4.42,10.27 11.12,10.27zm28.73 -0.44l6.7 0c0.45,0 0.67,-0.33 0.56,-0.76l-5.14 -16.03c-0.06,-0.11 0,-0.27 0.17,-0.32 2.96,-1.85 4.75,-5.22 4.75,-9.51 0,-6.74 -4.25,-11.47 -10.51,-11.47l-11.29 0c-0.4,0 -0.68,0.28 -0.68,0.66l0 36.78c0,0.38 0.28,0.65 0.68,0.65l6.54 0c0.39,0 0.67,-0.27 0.67,-0.65l0 -14.83c0,-0.17 0.11,-0.28 0.28,-0.28l1.9 0c0.17,0 0.22,0.11 0.28,0.22l4.3 15c0.11,0.32 0.39,0.54 0.79,0.54zm-7.27 -31.46l2.51 0c2.29,0 3.92,1.8 3.92,4.95 0,3.04 -1.63,4.83 -3.92,4.83l-2.51 0c-0.17,0 -0.28,-0.11 -0.28,-0.27l0 -9.24c0,-0.16 0.11,-0.27 0.28,-0.27zm26.82 31.9c6.82,0 11.35,-4.24 11.35,-10.76l0 -17.39c0,-6.52 -4.53,-10.76 -11.35,-10.76 -6.82,0 -11.3,4.24 -11.3,10.76l0 17.39c0,6.52 4.48,10.76 11.3,10.76zm0 -6.58c-2.07,0 -3.41,-1.57 -3.41,-3.86l0 -18.03c0,-2.29 1.34,-3.86 3.41,-3.86 2.12,0 3.46,1.57 3.46,3.86l0 18.03c0,2.29 -1.34,3.86 -3.46,3.86z"/>
  <g id="_2492527487760">
   <path class="fil0" d="M153.85 43.89l5.25 0c0.31,0 0.53,-0.27 0.53,-0.65l0 -23.58c0,-0.27 0.18,-0.27 0.27,-0.06l3.45 8.53c0.14,0.33 0.23,0.49 0.32,0.49 0.09,0 0.18,-0.16 0.31,-0.49l3.5 -8.42c0.09,-0.27 0.27,-0.21 0.27,0.06l0 23.47c0,0.38 0.22,0.65 0.54,0.65l5.24 0c0.31,0 0.54,-0.27 0.54,-0.65l0 -36.73c0,-0.38 -0.23,-0.65 -0.54,-0.65l-5.2 0c-0.27,0 -0.49,0.11 -0.63,0.49l-3.9 10.16c-0.09,0.21 -0.18,0.21 -0.27,0l-3.9 -10.16c-0.13,-0.38 -0.36,-0.49 -0.62,-0.49l-5.16 0c-0.31,0 -0.54,0.27 -0.54,0.65l0 36.73c0,0.38 0.23,0.65 0.54,0.65z"/>
   <path class="fil0" d="M190.04 43.89l5.38 0c0.36,0 0.54,-0.22 0.45,-0.71l-6.55 -36.72c-0.04,-0.38 -0.27,-0.6 -0.58,-0.6l-6.05 0c-0.32,0 -0.54,0.22 -0.59,0.6l-6.59 36.72c-0.09,0.49 0.09,0.71 0.45,0.71l5.25 0c0.31,0 0.53,-0.16 0.58,-0.6l0.81 -5.27c0,-0.16 0.13,-0.21 0.27,-0.21l5.6 0c0.13,0 0.27,0.1 0.27,0.27l0.71 5.21c0.05,0.44 0.27,0.6 0.59,0.6zm-6.46 -12.28l2.11 -14.02c0.04,-0.21 0.22,-0.21 0.27,0l1.88 14.02c0,0.16 -0.04,0.27 -0.18,0.27l-3.85 0c-0.14,0 -0.27,-0.05 -0.23,-0.27z"/>
   <path class="fil0" d="M206.77 5.8l-9.06 0c-0.31,0 -0.53,0.28 -0.53,0.66l0 36.78c0,0.38 0.22,0.65 0.53,0.65l5.25 0c0.31,0 0.54,-0.27 0.54,-0.65l0 -14.45c0,-0.17 0.09,-0.27 0.22,-0.27l3.36 0c4.85,0 8.12,-4.41 8.12,-11.14 0,-6.85 -3.41,-11.58 -8.43,-11.58zm-1.08 16.74l-1.97 0c-0.13,0 -0.22,-0.11 -0.22,-0.27l0 -9.57c0,-0.16 0.09,-0.27 0.22,-0.27l1.97 0c1.89,0 3.19,1.85 3.19,5.11 0,3.2 -1.3,5 -3.19,5z"/>
   <path class="fil0" d="M226.6 43.89l5.38 0c0.36,0 0.54,-0.22 0.45,-0.71l-6.55 -36.72c-0.04,-0.38 -0.27,-0.6 -0.58,-0.6l-6.05 0c-0.32,0 -0.54,0.22 -0.59,0.6l-6.59 36.72c-0.09,0.49 0.09,0.71 0.45,0.71l5.25 0c0.31,0 0.53,-0.16 0.58,-0.6l0.81 -5.27c0,-0.16 0.13,-0.21 0.26,-0.21l5.61 0c0.13,0 0.27,0.1 0.27,0.27l0.71 5.21c0.05,0.44 0.27,0.6 0.59,0.6zm-6.46 -12.28l2.11 -14.02c0.04,-0.21 0.22,-0.21 0.27,0l1.88 14.02c0,0.16 -0.04,0.27 -0.18,0.27l-3.85 0c-0.14,0 -0.27,-0.05 -0.23,-0.27z"/>
   <path class="fil0" d="M240.91 44.33c5.15,0 8.74,-4.03 8.74,-10.44 0,-5.43 -2.51,-7.82 -7.17,-11.95 -3.14,-2.83 -4.17,-4.07 -4.17,-6.36 0,-2.28 0.98,-3.58 2.37,-3.58 1.53,0 2.56,1.46 2.56,3.69l0 1.47c0,0.38 0.22,0.65 0.54,0.65l5.15 0c0.32,0 0.54,-0.27 0.54,-0.65l0 -1.3c0,-6.25 -3.5,-10.44 -8.79,-10.44 -5.11,0 -8.6,3.97 -8.6,10.16 0,6.31 3.67,9.51 6.99,12.39 3.05,2.72 4.35,3.91 4.35,6.25 0,2.12 -1.08,3.53 -2.51,3.53 -1.44,0 -2.47,-1.47 -2.47,-3.75l0 -1.36c0,-0.38 -0.22,-0.65 -0.54,-0.65l-5.15 0c-0.32,0 -0.54,0.27 -0.54,0.65l0 1.74c0,5.87 3.45,9.95 8.7,9.95z"/>
  </g>
  <path class="fil1" d="M124.78 1.82c-12.04,0 -21.83,9.79 -21.83,21.83 0,12.04 9.79,21.84 21.83,21.84 12.04,0 21.84,-9.8 21.84,-21.84 0,-12.04 -9.8,-21.83 -21.84,-21.83zm0 45.49c-13.04,0 -23.65,-10.61 -23.65,-23.66 0,-13.04 10.61,-23.65 23.65,-23.65 13.05,0 23.66,10.61 23.66,23.65 0,13.05 -10.61,23.66 -23.66,23.66z"/>
  <path class="fil1" d="M113.09 7.12c-2.82,1.85 -5.59,5.2 -7.12,8.95 0.28,0.22 0.07,0.02 0.25,0.39 0.01,0.04 0.02,0.07 0.03,0.1 0.16,0.36 -0.15,-0.01 0.17,0.34 0.16,0.17 0.51,0.28 0.67,0.36 0,1.12 -0.04,2.98 1.43,3.03 0.12,-1.05 -0.95,-1.4 -0.75,-2.48 0.06,-0.37 -0.05,-0.08 0.14,-0.32 0.47,0.23 0.26,0.14 0.4,0.84 0.09,0.48 0.08,0.44 0.35,0.83 0.99,1.45 0.69,0.58 0.65,1.58 -0.04,0.94 1.08,1.47 1.93,1.52 0.73,0.04 0.05,-0.14 0.91,-0.09l0.2 0.35c0.03,0.07 0,0.08 0.06,0.21 1.2,0.2 1.3,0.2 1.96,1.06 1.17,1.51 2.25,-0.32 2.22,2.04l-1 0.67c-0.19,2.32 -0.27,1.7 1.01,3.4 0.22,0.29 0.16,0.22 0.3,0.51 0.44,0.91 0.42,0.44 1.16,0.95 0.31,0.21 0.55,0.43 0.81,0.61 0.04,0.69 0.02,1.43 0.02,2.13 -0.01,0.55 0.03,1.15 0.24,1.53 0.02,0.02 0.05,0.11 0.06,0.09l-0.11 1.4c0.09,0.45 0.33,0.42 0.51,0.8 0.37,0.79 -0.3,1.27 0.33,2.33 0.39,0.66 0.5,1.02 1.1,1.54 0.37,0.31 1.09,0.93 1.83,0.49 0.33,-0.48 -0.35,-0.55 -0.55,-0.86 -0.29,-0.46 0.05,-0.8 0.03,-1.36 -0.46,-0.16 -0.34,0.01 -0.76,-0.27 0.04,-0.51 0.16,-0.38 0.42,-0.79 -0.14,-0.34 -0.36,-0.3 -0.45,-0.66 0.5,-0.31 1.22,-0.39 1.72,-0.69 0.48,-0.28 0.64,-0.82 0.98,-1.27 1.68,-2.21 0.3,-1.11 0.98,-3.1 3.35,-0.16 1.3,-1.82 2.56,-3.44 0.44,-0.56 0.56,-0.48 0.66,-1.31 -0.34,-0.28 -0.47,-0.17 -0.76,-0.42 -0.25,-0.23 -0.24,-0.43 -0.52,-0.7 -0.59,-0.16 -1.21,-0.01 -1.84,-0.13 -0.42,-0.08 -0.92,-0.33 -1.33,-0.51 -0.08,-1.01 -0.05,-1.1 -0.58,-1.8 -0.87,-0.08 -1.13,0.22 -1.54,-0.46 -0.88,-1.44 -0.66,-0.88 -1.4,-0.7 -0.23,0.05 -0.69,0.06 -0.94,0.07 -0.61,-0.78 -0.46,-0.71 -1.72,-0.8l-0.85 1.13 -1.74 -0.3 -0.14 -1.79 -1.11 -0.2c0.14,-0.55 0.46,-0.79 0.3,-1.33 -1.21,0.39 -0.76,1.07 -2.45,0.83 -0.39,-0.21 -1.36,-3.61 3.91,-3.18 0.29,0.8 -0.39,0.57 0.66,0.97l0.19 -0.75c0.16,-1.21 1.47,-1.09 1.86,-2.04 0.47,-1.16 1.4,-1.53 2.32,-2.21 0.33,-0.25 0.47,-0.56 0.78,-0.82 0.42,-0.33 0.87,-0.16 0.89,-0.22 0.02,-0.03 0.06,0 0.09,-0.02 -0.3,-0.38 -0.52,-0.08 -0.5,-0.73 1.04,-0.43 0.88,0.44 1.82,0.1 0.57,-0.2 -0.36,-0.13 0.55,-0.17 -0.08,0.82 -0.23,0.22 -0.29,0.93 0.49,0.14 0.95,0.41 1.36,0.14 -0.22,-0.68 -0.4,-0.31 -0.89,-0.8 0.36,-0.44 0.75,-0.03 0.73,-0.78 -0.02,-0.47 -0.27,-0.44 -0.75,-0.75l-0.06 -1.11c-0.65,0.15 -0.65,0.39 -1.4,0.41l-0.03 -0.94c-1.4,-0.2 -0.81,-0.41 -1.93,0.09l-0.03 1.44c-0.39,0.16 -0.85,0.2 -1.09,0.49 -0.4,0.48 0,0.59 -0.71,0.8 -0.21,-0.33 -0.15,-0.66 -0.16,-1.09 -1.06,-0.22 -1.66,-0.09 -1.66,-1.33 0.96,-0.43 1.29,-0.85 2.49,-1.22 0.39,0.3 0.03,0.12 0.4,0.53l0.52 -0.25c0.37,-0.31 0.19,0.07 0.14,-0.67 1.08,-0.02 0.61,-0.39 1.35,-0.6 0.89,-0.25 1.2,-0.13 1.6,0.34l-0.15 0.14c-0.02,0.02 -0.05,0.05 -0.07,0.07l-0.42 0.25c-0.25,0.14 -0.49,0.27 -0.67,0.41l1.67 0.39c0.38,-0.3 0.16,-0.11 0.4,-0.56 2.03,-0.32 0.55,-0.43 0.44,-1.41 -0.06,-0.5 -2.5,-1.15 -3.45,-0.58 -0.56,0.34 -0.24,-0.04 -0.34,0.49 -0.03,0.14 0,0.49 0,0.66 -1.54,-0.12 -0.76,-0.82 -0.28,-1.27 -0.65,-0.09 -1.12,-0.17 -1.63,0.09 -0.04,0.99 0.37,-0.21 0.3,0.88 -0.24,0.11 -0.32,0.07 -0.59,0.16 -0.73,0.25 -0.92,0.41 -1.72,0.31l-0.02 -0.56c0.03,-0.02 0.07,-0.03 0.09,-0.04l0.33 -0.08c0.57,-0.12 0.88,-0.2 1.18,-0.8 -0.8,-0.04 -1.5,1.21 -2.26,-0.37 -1.4,-0.05 -1.11,-0.08 -2.02,0.63l0.73 0.23 0.09 0.55c0.71,0.08 0.89,-0.16 1.08,0.41 -0.92,0.39 -1.21,-0.12 -1.77,-0.35 -0.35,-0.14 -0.66,-0.25 -0.93,-0.3 -0.14,-0.03 -0.73,-0.01 -0.79,-0.16 -0.02,-0.04 -0.06,-0.03 -0.09,-0.05z"/>
  <path class="fil1" d="M140.52 36.38c1.74,-2.4 3.09,-4.52 3.94,-8.03 0.43,-1.78 0.6,-3.44 0.54,-5.39 -0.03,-0.94 -0.44,-4.79 -0.85,-5.22l-0.06 0.28c-0.59,0.04 -1.33,0.13 -1.8,-0.16 -0.77,-0.47 -0.33,-0.63 -1.65,-0.44l-0.26 0.61c-0.4,-0.09 -0.55,-0.25 -1.06,-0.37 -0.42,-0.11 -0.82,-0.2 -1.25,-0.35l-0.03 -1.11c-1.21,0.03 -1.67,0.03 -2.78,0.44 -1.17,0.42 -1.01,-0.33 -2.53,0.62l-0.09 1.18c-1.1,0.78 -2.39,1.44 -2.09,2 0.3,0.56 0.81,0 0.26,1.02 -0.44,0.8 -0.31,1.65 0.29,2.3 2.07,2.23 0.87,1.58 2.92,1.51 1.18,-0.03 0.68,-0.09 1.37,-0.32 1.12,-0.37 0.13,0.2 2.58,0.53 -0.03,1.87 -0.38,1.27 0.49,2.85 0.81,1.46 0.98,0.85 0.24,2.37 -0.25,0.55 -0.31,0.85 0.06,1.31 0.57,0.72 0.35,0.31 0.38,1.43 0.02,0.86 0.23,0.8 0.57,1.32 0.33,0.49 0.18,0.87 0.24,1.6l0.57 0.02z"/>
  <path class="fil1" d="M143.7 16.37c-2.2,-4.46 -2.22,-4.53 -5.29,-7.73l-0.22 -0.21c-0.02,-0.02 -0.05,-0.05 -0.08,-0.08 0.02,1.17 -1.36,0.35 -1.38,1.62 0.31,0.37 0.17,0.06 0.48,0.37 0.21,0.21 0.17,0.3 0.39,0.54l0.76 -0.25 0.13 0.98c-2.59,-0.15 -1.42,0.31 -2.39,0.97 -0.49,0.33 -0.91,-0.02 -1.12,0.5 -0.44,1.13 0.43,0.21 0.27,1.13 -0.04,0.02 -0.09,0 -0.11,0.04 -0.02,0.05 -0.08,0.04 -0.1,0.04 -1.05,0.16 -2.41,-0.71 -1.84,1.79 0.73,0.24 1.18,0.25 2.01,0.12 0.22,-0.32 0.32,-0.56 0.57,-0.88 0.23,-0.3 0.38,-0.47 0.62,-0.82 1.25,-0.06 0.51,0 1.33,-0.42 0.56,0.77 1.52,1.05 1.71,1.6 -0.43,0.14 -0.45,0.01 -0.76,0.24 0.39,0.31 0.36,0.29 0.99,0.19l0.19 -0.97c-0.74,-0.5 -1.18,-0.4 -1.33,-1.41 2.36,-0.15 1.43,1.76 2.65,2.36 0.39,-0.71 -0.04,-0.89 0.79,-1.2 0.27,0.44 0.05,0.69 0.44,1.14 0.35,0.4 0.65,0.25 1.29,0.34z"/>
  <path class="fil2" d="M134.53 1.4c0,0 0.35,-0.12 0.99,-0.35 0.32,-0.11 0.71,-0.27 1.2,-0.39 0.48,-0.11 1.03,-0.31 1.67,-0.38 0.33,-0.05 0.66,-0.1 1.02,-0.15 0.36,-0.03 0.73,-0.04 1.13,-0.06 0.4,-0.04 0.81,0.02 1.24,0.07 0.22,0.02 0.44,0.03 0.66,0.07 0.22,0.06 0.45,0.12 0.68,0.18 0.22,0.07 0.46,0.1 0.69,0.21 0.22,0.1 0.45,0.21 0.68,0.32 0.49,0.18 0.88,0.56 1.33,0.88 0.07,0.05 0.09,0.05 0.19,0.15l0.14 0.13 0.26 0.28c0.18,0.19 0.37,0.46 0.55,0.7 0.31,0.49 0.59,1.02 0.79,1.58 0.83,2.28 0.72,4.9 0.15,7.43 -0.57,2.55 -1.55,5.11 -2.84,7.59 -1.28,2.48 -2.81,4.93 -4.58,7.26 -1.76,2.33 -3.7,4.55 -5.8,6.68 -2.07,2.04 -4.34,4.03 -6.66,5.78 -2.32,1.77 -4.78,3.29 -7.26,4.58 -2.48,1.29 -5.04,2.27 -7.59,2.84 -2.53,0.56 -5.14,0.68 -7.42,-0.16 -1.15,-0.42 -2.12,-1.03 -2.88,-1.96 -0.29,-0.42 -0.61,-0.73 -0.83,-1.26 -0.12,-0.25 -0.23,-0.48 -0.34,-0.72 -0.1,-0.23 -0.14,-0.47 -0.21,-0.7 -0.06,-0.22 -0.12,-0.45 -0.17,-0.67 -0.04,-0.22 -0.05,-0.44 -0.08,-0.66 -0.04,-0.43 -0.1,-0.84 -0.06,-1.24 0.02,-0.4 0.02,-0.78 0.05,-1.13 0.06,-0.36 0.11,-0.7 0.16,-1.02 0.07,-0.64 0.27,-1.19 0.38,-1.67 0.12,-0.49 0.28,-0.88 0.39,-1.2 0.23,-0.65 0.35,-0.99 0.35,-0.99 0,0 -0.07,0.36 -0.21,1.03 -0.15,0.66 -0.29,1.65 -0.37,2.9 -0.01,0.31 -0.03,0.63 -0.04,0.98 0.01,0.34 0.05,0.69 0.08,1.07 0,0.37 0.1,0.74 0.18,1.12 0.04,0.19 0.07,0.4 0.12,0.59 0.07,0.18 0.14,0.38 0.22,0.57 0.07,0.19 0.13,0.4 0.23,0.57 0.1,0.17 0.2,0.34 0.3,0.52 0.15,0.34 0.56,0.71 0.87,1.08 0.07,0.1 0.32,0.26 0.47,0.4 0.17,0.14 0.37,0.25 0.57,0.37 0.4,0.22 0.83,0.41 1.31,0.54 1.89,0.53 4.16,0.29 6.44,-0.34 2.3,-0.64 4.63,-1.7 6.95,-2.98 2.32,-1.28 4.57,-2.85 6.79,-4.55 2.23,-1.73 4.31,-3.59 6.35,-5.64 2,-1.98 3.92,-4.12 5.62,-6.33 1.7,-2.22 3.28,-4.47 4.56,-6.79 1.28,-2.32 2.34,-4.65 2.98,-6.95 0.63,-2.28 0.87,-4.56 0.34,-6.45 -0.49,-1.91 -1.94,-3.18 -3.48,-3.75 -0.19,-0.08 -0.38,-0.15 -0.57,-0.22 -0.19,-0.05 -0.39,-0.08 -0.58,-0.12 -0.39,-0.07 -0.76,-0.18 -1.13,-0.18 -0.37,-0.03 -0.73,-0.06 -1.07,-0.08 -0.34,0.01 -0.67,0.03 -0.98,0.04 -1.25,0.08 -2.24,0.22 -2.9,0.37 -0.67,0.14 -1.03,0.21 -1.03,0.21z"/>
  <path class="fil2" d="M134.53 1.4c0,0 0.35,-0.12 0.99,-0.35 0.32,-0.11 0.71,-0.27 1.2,-0.39 0.48,-0.11 1.03,-0.31 1.67,-0.38 0.33,-0.05 0.66,-0.1 1.02,-0.15 0.35,-0.03 0.73,-0.04 1.13,-0.06 0.4,-0.04 0.81,0.02 1.24,0.07 0.22,0.02 0.44,0.03 0.66,0.07 0.22,0.06 0.45,0.12 0.68,0.18 0.22,0.07 0.46,0.1 0.69,0.21 0.22,0.1 0.45,0.21 0.68,0.32 0.49,0.18 0.88,0.56 1.33,0.88 0.07,0.05 0.09,0.05 0.19,0.15l0.14 0.13 0.26 0.28c0.18,0.19 0.37,0.46 0.55,0.7 0.31,0.49 0.59,1.02 0.79,1.58 0.83,2.28 0.72,4.9 0.15,7.43 -0.57,2.55 -1.55,5.11 -2.84,7.59 -1.28,2.48 -2.81,4.93 -4.58,7.26 -1.76,2.33 -3.7,4.55 -5.8,6.68 -2.07,2.04 -4.34,4.03 -6.66,5.78 -2.32,1.77 -4.78,3.29 -7.26,4.58 -2.48,1.29 -5.04,2.27 -7.59,2.84 -2.53,0.56 -5.14,0.68 -7.43,-0.16 -1.14,-0.42 -2.11,-1.03 -2.88,-1.96 -0.28,-0.42 -0.6,-0.73 -0.82,-1.26 -0.12,-0.25 -0.23,-0.48 -0.34,-0.72 -0.1,-0.23 -0.14,-0.47 -0.21,-0.7 -0.06,-0.22 -0.12,-0.45 -0.17,-0.67 -0.04,-0.22 -0.05,-0.44 -0.08,-0.66 -0.04,-0.43 -0.1,-0.84 -0.06,-1.24 0.02,-0.4 0.02,-0.78 0.05,-1.13 0.06,-0.36 0.11,-0.7 0.16,-1.02 0.07,-0.64 0.27,-1.19 0.38,-1.67 0.12,-0.49 0.28,-0.88 0.39,-1.2 0.23,-0.65 0.35,-0.99 0.35,-0.99 0,0 -0.07,0.36 -0.21,1.03 -0.15,0.66 -0.29,1.65 -0.37,2.9 -0.01,0.31 -0.03,0.63 -0.04,0.98 0.01,0.34 0.05,0.69 0.08,1.07 0,0.37 0.1,0.74 0.18,1.12 0.04,0.19 0.07,0.4 0.12,0.59 0.07,0.18 0.14,0.38 0.22,0.57 0.07,0.19 0.13,0.4 0.22,0.57 0.11,0.17 0.21,0.34 0.31,0.52 0.15,0.34 0.56,0.71 0.87,1.08 0.07,0.1 0.32,0.26 0.47,0.4 0.17,0.14 0.37,0.25 0.57,0.37 0.4,0.22 0.83,0.41 1.31,0.54 1.89,0.53 4.16,0.29 6.44,-0.34 2.3,-0.64 4.63,-1.7 6.95,-2.98 2.32,-1.28 4.57,-2.85 6.79,-4.55 2.23,-1.73 4.31,-3.59 6.35,-5.64 2,-1.98 3.92,-4.12 5.62,-6.33 1.7,-2.22 3.28,-4.47 4.56,-6.79 1.28,-2.32 2.34,-4.65 2.98,-6.95 0.63,-2.28 0.87,-4.56 0.34,-6.45 -0.49,-1.91 -1.94,-3.18 -3.48,-3.75 -0.19,-0.08 -0.38,-0.15 -0.57,-0.22 -0.2,-0.05 -0.39,-0.08 -0.58,-0.12 -0.39,-0.08 -0.76,-0.18 -1.13,-0.18 -0.37,-0.03 -0.73,-0.06 -1.07,-0.08 -0.35,0.01 -0.68,0.03 -0.99,0.04 -1.24,0.08 -2.23,0.22 -2.89,0.37 -0.67,0.14 -1.03,0.21 -1.03,0.21z"/>
  <path class="fil0" d="M145.72 0.06c1.39,0 2.53,1.14 2.53,2.53 0,1.4 -1.14,2.54 -2.53,2.54 -1.4,0 -2.54,-1.14 -2.54,-2.54 0,-1.39 1.14,-2.53 2.54,-2.53z"/>
 </g>
</svg>
